<svg xmlns="http://www.w3.org/2000/svg" width="34" height="38" fill="none" xmlns:v="https://vecta.io/nano"><g clip-path="url(#A)"><path fill-rule="evenodd" d="M4.25 13.3C4.25 6.217 9.959.475 17 .475S29.75 6.217 29.75 13.3v.093 1.332c0 4.034 1.513 7.709 4.002 10.488a1.43 1.43 0 0 1 .323 1.295 1.42 1.42 0 0 1-.885.995c-2.916 1.083-5.969 1.882-9.126 2.363a7.25 7.25 0 0 1 .02.534c0 3.935-3.171 7.125-7.083 7.125s-7.083-3.19-7.083-7.125c0-.179.007-.357.02-.533A46.22 46.22 0 0 1 .81 27.503a1.42 1.42 0 0 1-.885-.995 1.43 1.43 0 0 1 .323-1.295c2.489-2.779 4.002-6.454 4.002-10.488V13.3zm8.504 16.909a4.34 4.34 0 0 0-.004.191c0 2.361 1.903 4.275 4.25 4.275s4.25-1.914 4.25-4.275c0-.064-.001-.128-.004-.191A47.03 47.03 0 0 1 17 30.4a47.05 47.05 0 0 1-4.245-.191z" fill="#28343e"/></g><defs><clipPath id="A"><path fill="#fff" d="M0 0h34v38H0z"/></clipPath></defs></svg>