<svg xmlns="http://www.w3.org/2000/svg" width="38" height="38" fill="#03a9f4" xmlns:v="https://vecta.io/nano"><path d="M18.16 6.082a1.19 1.19 0 0 1 1.679 0L33.598 19.84a1.19 1.19 0 0 0 1.679 0 1.19 1.19 0 0 0 0-1.679L21.519 4.402c-1.391-1.391-3.647-1.391-5.038 0L2.723 18.16a1.19 1.19 0 0 0 0 1.679 1.19 1.19 0 0 0 1.679 0L18.16 6.082zM19 8.601l12.918 12.918.144.136v9.813a2.97 2.97 0 0 1-2.969 2.969H23.75a1.19 1.19 0 0 1-1.187-1.187v-7.125a1.19 1.19 0 0 0-1.187-1.187h-4.75a1.19 1.19 0 0 0-1.187 1.188v7.125a1.19 1.19 0 0 1-1.187 1.188H8.906a2.97 2.97 0 0 1-2.969-2.969v-9.813l.144-.136L19 8.601z"/></svg>