<svg xmlns="http://www.w3.org/2000/svg" width="38" height="38" fill="none" xmlns:v="https://vecta.io/nano"><path fill-rule="evenodd" d="M5.469 36.154l1.003.139 1.247.061c2.473 0 4.784-.713 6.737-1.945 1.455.344 2.978.527 4.544.527 10.006 0 18.332-7.506 18.332-17.02S29.007.896 19 .896.668 8.402.668 17.916c0 4.555 1.926 8.675 5.027 11.71.436.427.521.808.479 1.026a7.07 7.07 0 0 1-1.532 3.189c-.326.387-.422.92-.251 1.397s.582.826 1.078.916zm6.48-20.366c-1.168 0-2.115.953-2.115 2.127s.947 2.127 2.115 2.127 2.115-.953 2.115-2.127-.947-2.127-2.115-2.127zm4.936 2.127c0-1.175.947-2.127 2.115-2.127s2.115.953 2.115 2.127-.947 2.127-2.115 2.127-2.115-.953-2.115-2.127zm9.166-2.127c-1.168 0-2.115.953-2.115 2.127s.947 2.127 2.115 2.127 2.115-.953 2.115-2.127-.947-2.127-2.115-2.127z" fill="#28343e"/></svg>