<svg xmlns="http://www.w3.org/2000/svg" width="119" height="119" fill="none" xmlns:v="https://vecta.io/nano"><g clip-path="url(#A)"><circle cx="59.5" cy="59.5" r="58.5" fill="#03a9f4"/><path fill-rule="evenodd" d="M59.5 118.918c32.817 0 59.418-26.601 59.418-59.418S92.317.082 59.5.082.082 26.683.082 59.5s26.601 59.418 59.418 59.418zm17.825-71.302c0 4.728-1.878 9.261-5.221 12.605s-7.877 5.221-12.605 5.221-9.262-1.878-12.605-5.221-5.221-7.877-5.221-12.605 1.878-9.262 5.221-12.605 7.877-5.221 12.605-5.221 9.262 1.878 12.605 5.221 5.221 7.877 5.221 12.605zM23.849 89.209c4.147-5.538 9.529-10.033 15.718-13.128A44.5 44.5 0 0 1 59.5 71.384a44.5 44.5 0 0 1 19.933 4.698c6.189 3.094 11.57 7.589 15.718 13.128a44.5 44.5 0 0 1-15.718 13.128 44.49 44.49 0 0 1-19.933 4.697 44.49 44.49 0 0 1-19.933-4.697 44.5 44.5 0 0 1-15.718-13.128z" fill="#131c22"/></g><defs><clipPath id="A"><path fill="#fff" d="M0 0h119v119H0z"/></clipPath></defs></svg>