<svg xmlns="http://www.w3.org/2000/svg" width="38" height="38" fill="none" xmlns:v="https://vecta.io/nano"><path fill-rule="evenodd" d="M19 0C8.507 0 0 8.507 0 19s8.507 19 19 19 19-8.507 19-19S29.493 0 19 0zM7.818 7.449A16.03 16.03 0 0 0 2.923 19 16.08 16.08 0 0 0 19 35.077 16.08 16.08 0 0 0 35.077 19c0-5.369-2.632-10.124-6.677-13.044a8.77 8.77 0 0 1-2.569 2.643l-2.447 1.631.321.641a1.58 1.58 0 0 1-1.41 2.282c-.245 0-.486-.057-.705-.166l-1.177-.588c-.844-.422-1.863-.257-2.531.411l-.256.256c-.856.856-.856 2.244 0 3.1l.575.575a2.19 2.19 0 0 0 1.911.612l2.28-.38a2.19 2.19 0 0 1 1.764.478l2.59 2.159a2.12 2.12 0 0 1 .699 2.142c-.745 2.981-2.287 5.703-4.46 7.876l-1.408 1.408a2.19 2.19 0 0 1-2.531.411l-.298-.149a2.19 2.19 0 0 1-1.212-1.961v-2.122a2.19 2.19 0 0 0-.642-1.55l-2.625-2.625c-.667-.667-.833-1.687-.411-2.531l.755-1.51-3.197-3.197c-1.723-1.723-2.865-3.942-3.266-6.346l-.335-2.009z" fill="#28343e"/></svg>